<svg version="1.1" id="Layer_1" xmlns="http://www.w3.org/2000/svg" xmlns:xlink="http://www.w3.org/1999/xlink" x="0px" y="0px"
	 width="100%" viewBox="0 0 800 800" enable-background="new 0 0 800 800" xml:space="preserve">
<path fill="#000000" opacity="1.000000" stroke="none" 
	d="
M615.493652,490.373138 
	C602.958252,518.842407 585.672485,543.542725 563.180908,564.468933 
	C529.447266,595.854797 489.843750,615.379211 444.216614,622.409241 
	C396.471375,629.765625 350.921234,622.502319 308.009644,600.538025 
	C259.761475,575.842102 224.979095,538.136047 203.795090,488.283752 
	C200.491714,480.509918 196.399048,477.326904 188.216324,477.061615 
	C179.166092,476.768188 170.158615,475.156433 160.846420,474.085938 
	C161.691483,472.103912 163.007446,472.623291 164.010193,472.614105 
	C198.499115,472.297516 232.988464,472.024170 267.477386,471.708923 
	C273.379242,471.654968 278.112946,474.592560 283.114990,476.881104 
	C283.085602,477.340149 283.056213,477.799194 283.026825,478.258209 
	C269.677246,479.802216 256.327698,481.346222 244.470795,482.717560 
	C258.475250,482.717560 273.903687,482.737640 289.332062,482.706573 
	C294.656036,482.695862 300.000397,482.278351 305.038269,484.653107 
	C308.587860,486.326294 309.287140,483.408051 310.266327,481.178406 
	C315.163483,470.027313 322.626312,461.099335 333.060638,454.732971 
	C367.365479,433.802521 412.041107,454.501984 418.122864,494.289673 
	C418.687347,497.982666 419.873688,499.370239 423.427643,498.772308 
	C423.753937,498.717407 424.092560,498.733643 424.425629,498.721436 
	C436.310608,498.285583 436.310608,498.285645 436.711853,486.792999 
	C437.702332,458.422272 462.101532,434.894501 490.448456,434.632690 
	C509.285004,434.458710 524.376709,441.719879 535.897827,456.471405 
	C537.649414,458.714142 538.927368,459.394897 541.560486,457.684204 
	C568.273560,440.329224 592.136414,419.690521 613.250977,395.857544 
	C613.984009,395.030121 615.100708,394.316772 614.663330,392.597015 
	C610.641968,392.336273 607.024475,394.200195 603.303589,395.252441 
	C558.424866,407.944244 512.890930,417.667572 466.898987,425.249298 
	C428.817871,431.526947 390.563965,436.403656 352.066071,439.499878 
	C311.532715,442.759796 270.970978,444.575256 230.310913,444.257263 
	C227.579193,444.235901 224.580231,443.535248 223.306839,447.296387 
	C222.921082,448.435760 221.264236,448.161957 220.118393,448.226746 
	C201.506729,449.278748 182.891266,450.266541 164.283524,451.383484 
	C152.871964,452.068451 141.472046,452.947571 130.111832,453.736359 
	C129.697525,451.467987 131.089249,451.839722 131.897079,451.714081 
	C149.464188,448.982086 167.036301,446.282318 184.607849,443.578888 
	C187.765762,443.093018 189.573578,442.093750 188.911621,438.078766 
	C186.881027,425.762543 185.528107,413.299713 185.826508,400.830170 
	C187.695114,322.744324 220.091263,260.606476 284.151642,215.640366 
	C313.988800,194.696686 347.473633,182.803955 383.734863,178.556778 
	C427.964935,173.376205 470.150269,180.510223 509.788635,200.463837 
	C559.110413,225.291977 594.738159,263.417053 616.502380,314.322205 
	C620.833618,324.452698 624.165344,334.903259 626.945251,345.541748 
	C627.351562,347.096588 628.165039,348.651947 627.395752,351.016968 
	C612.993408,347.603363 598.343933,346.116760 583.198730,347.738739 
	C585.454895,349.350281 587.741211,350.921631 589.958679,352.584839 
	C592.140930,354.221741 594.280518,356.114441 593.630432,359.153717 
	C593.018860,362.012573 590.316467,362.691589 587.900513,363.329498 
	C564.414551,369.530273 540.870117,375.470459 517.066650,380.376801 
	C486.750244,386.625610 456.233002,391.626068 425.480011,395.026245 
	C399.011719,397.952698 372.454865,399.960266 345.802887,400.296844 
	C344.184906,400.317291 342.460724,400.686340 340.338043,399.125824 
	C343.710266,376.017822 353.232849,355.418610 368.593384,337.296783 
	C365.946411,335.859802 364.595917,337.537048 363.224670,338.458679 
	C341.734924,352.901947 325.073914,371.633087 314.001526,395.073059 
	C312.017700,399.272736 309.719238,400.553650 305.281586,400.393799 
	C293.292297,399.961914 281.343414,399.051849 269.392914,398.103790 
	C268.604279,398.041229 267.838745,397.687988 266.874542,397.417145 
	C266.909851,393.836212 269.230164,391.501740 270.935425,389.001465 
	C296.760773,351.135071 332.176849,327.027649 376.489990,315.862244 
	C405.013458,308.675293 433.969788,307.223938 463.223480,309.519897 
	C477.508240,310.641022 491.662506,312.465149 505.687805,315.383606 
	C507.745850,315.811829 509.915344,315.704254 512.120422,315.202484 
	C479.815765,303.536133 446.367920,299.157654 410.678436,300.391144 
	C416.926788,291.153748 419.660431,282.377441 415.081116,272.818756 
	C412.543365,267.521606 408.608856,263.557678 403.344208,260.971100 
	C393.743134,256.253967 380.619110,258.984711 374.211823,266.979156 
	C365.309875,278.086212 366.413116,288.307007 378.177887,303.190979 
	C377.529144,304.875732 375.822205,304.844635 374.501862,305.120117 
	C320.859741,316.310577 275.905975,342.785645 239.177399,383.091187 
	C233.006409,389.863159 226.409012,394.042877 217.910233,396.443817 
	C209.903824,398.705688 202.075409,401.676605 194.948441,406.097473 
	C192.170746,407.820496 188.472977,409.829346 188.997055,413.384735 
	C189.480942,416.667358 193.445480,417.628204 196.464539,418.483978 
	C207.441849,421.595490 218.790085,422.265167 230.078979,422.580231 
	C264.075867,423.528931 297.977875,421.547516 331.864624,418.877106 
	C370.692963,415.817322 409.345337,411.239838 447.852753,405.559967 
	C494.591370,398.666016 541.118530,390.526184 586.713196,377.842438 
	C600.834534,373.914062 614.909180,369.786896 627.678101,362.258698 
	C628.216003,361.941528 628.914978,361.897400 630.335571,361.507294 
	C638.247742,406.042786 633.162659,448.710571 615.493652,490.373138 
M461.742676,516.742554 
	C475.225555,530.618896 493.702484,534.220093 509.649750,526.079773 
	C526.780457,517.335388 535.001221,500.497589 531.575378,481.171478 
	C528.019226,461.109772 505.472900,445.772736 485.519226,449.841949 
	C453.557556,456.359985 441.141998,490.343353 461.742676,516.742554 
M402.675140,508.030701 
	C405.676697,479.809418 380.861786,458.785645 355.674805,463.174683 
	C338.759888,466.122223 319.960297,482.229095 322.197205,507.687073 
	C323.814301,526.090637 341.715820,543.227356 360.790771,543.673645 
	C381.457001,544.157166 397.596466,530.746887 402.675140,508.030701 
z"/>
<path fill="#000000" opacity="1.000000" stroke="none" 
	d="
M385.889801,276.486847 
	C385.614594,269.401276 388.262329,265.077728 393.373871,263.711945 
	C398.404541,262.367767 403.380066,264.378326 405.756439,268.715607 
	C408.781677,274.237183 406.854462,280.924713 401.444489,283.678375 
	C395.309265,286.801178 389.070465,284.064636 385.889801,276.486847 
z"/>
<path fill="#000000" opacity="1.000000" stroke="none" 
	d="
M474.454651,494.988403 
	C472.185852,483.938385 477.213623,474.815765 486.703156,472.123962 
	C495.968719,469.495728 505.807587,474.405334 509.102783,483.301361 
	C512.473755,492.401825 508.363770,502.404510 499.626343,506.364624 
	C490.702057,510.409454 480.822540,507.151276 476.031799,498.553833 
	C475.468140,497.542267 475.068146,496.439514 474.454651,494.988403 
z"/>
<path fill="#000000" opacity="1.000000" stroke="none" 
	d="
M344.156250,502.983948 
	C344.886505,486.598114 360.618378,481.819702 370.145386,486.360382 
	C377.851318,490.033173 382.174500,498.453522 380.335114,507.006378 
	C378.520447,515.444214 371.121307,521.330566 362.357697,521.308105 
	C353.408783,521.285217 346.377899,515.541260 344.671722,506.837311 
	C344.448486,505.698456 344.320953,504.540863 344.156250,502.983948 
z"/>
</svg>